<svg width="40" height="40" viewBox="0 0 24 24" fill="none" xmlns="http://www.w3.org/2000/svg">
<path d="M5 16.5V18.25C5 18.6642 5.33579 19 5.75 19H7.25C7.66421 19 8 18.6642 8 18.25V16.5" stroke="#c89128" stroke-width="1.6" stroke-linecap="round" stroke-linejoin="round"/>
<path d="M16 16.5V18.25C16 18.6642 16.3358 19 16.75 19H18.25C18.6642 19 19 18.6642 19 18.25V16.5" stroke="#c89128" stroke-width="1.6" stroke-linecap="round" stroke-linejoin="round"/>
<path d="M3.5 16.5V12.6C3.5 12.2287 3.61336 11.8663 3.82492 11.5613L5.83204 8.65847C6.20661 8.11902 6.8226 7.8 7.47913 7.8H16.5209C17.1774 7.8 17.7934 8.11902 18.168 8.65847L20.1751 11.5613C20.3866 11.8663 20.5 12.2287 20.5 12.6V16.5C20.5 16.9142 20.1642 17.25 19.75 17.25H4.25C3.83579 17.25 3.5 16.9142 3.5 16.5Z" stroke="#c89128" stroke-width="1.6" stroke-linejoin="round"/>
<path d="M3.5 13H20.5" stroke="#c89128" stroke-width="1.6" stroke-linecap="round"/>
<circle cx="7" cy="14.5" r="1" fill="#c89128"/>
<circle cx="17" cy="14.5" r="1" fill="#c89128"/>
</svg>
