<svg width="28" height="28" viewBox="0 0 24 24" fill="none" xmlns="http://www.w3.org/2000/svg">
<path d="M8.10761 10.4462C9.16283 12.5749 10.9251 14.3372 13.0538 15.3924L14.7096 13.7366C14.9204 13.5258 15.2404 13.4553 15.5182 13.5595C16.4021 13.8871 17.3567 14.0645 18.35 14.0645C18.7942 14.0645 19.15 14.4203 19.15 14.8645V18.35C19.15 18.7942 18.7942 19.15 18.35 19.15C10.7857 19.15 4.85 13.2143 4.85 5.65C4.85 5.2058 5.2058 4.85 5.65 4.85H9.13548C9.5797 4.85 9.93548 5.2058 9.93548 5.65C9.93548 6.64335 10.1129 7.59788 10.4405 8.48177C10.5447 8.75955 10.4742 9.07955 10.2634 9.29032L8.10761 10.4462Z" stroke="#ffffff" stroke-width="1.6" stroke-linejoin="round"/>
</svg>
